<svg width="20" height="20" fill="none" xmlns="http://www.w3.org/2000/svg"><g clip-path="url(#clip0)" fill="#AFB1B8"><path d="M20 6V3l-2-1-1-1-3-1A68 68 0 003 1L2 2 1 3 0 6a68 68 0 001 11l1 1 1 1 3 1a73 73 0 0011-1l3-2v-3a73 73 0 000-8zm-2 8v2l-2 2h-2a70 70 0 01-10 0l-1-1-1-1v-2A70 70 0 012 4l1-1 1-1h2a71 71 0 0110 0l1 1 1 1v2a70 70 0 010 8z"/><path d="M10 5a5 5 0 100 10 5 5 0 000-10zm0 8a3 3 0 110-6 3 3 0 010 6zM17 5a1 1 0 11-3 0 1 1 0 013 0z"/></g><defs><clipPath id="clip0"><path fill="#fff" d="M0 0h20v20H0z"/></clipPath></defs></svg>