<svg aria-hidden="true" style="position:absolute;width:0;height:0" xmlns="http://www.w3.org/2000/svg" overflow="hidden"><defs><symbol id="icon-logo-6" viewBox="0 0 62 32"><path fill="var(--color1, #afb1b8)" d="M31 15v-5h3v2h-1v-2h-1v5h1v-2h1v2h-3zm4 0v-5h3l1 1v2l-1 2h-3zm3 0v-5h-2v5a1 1 0 001 0 1 1 0 001 0zm2-5h1l1 3 1-3h1l1 5h-2v-4l-1 4-1-4v4h-1v-5zm5 0h2l2 1-2 2v2h-2v-5zm2 2a1 1 0 001 0v-2h-1v2zm4-2l2 5h-1l-1-1-1 1h-1l2-5zm0 3v-2 2zm3-3h1l1 3v-3h1v5h-1l-1-3v3h-1v-5zm5 3l-1-3h1l1 2 1-2v5h-2v-2zm-26 5h-1v2h-1v-2h2zm2 2v-1h-1l-1 1 1-2h1v2zm-1-1h1v-1h-1v1zm4 1v-1h1v1a1 1 0 01-1 0h-1l-1-1 1-1h1-1v1l1 1zm3 0zm3 0h-1v-2h1v2zm1-2l2 2v-2 2l-2-2v2-2zm5 0h-1v2h-1v-2h2zM10 1l17 5v16l-17-5V1zM9 0v18l19 5V5L9 0z"/><path fill="var(--color1, #afb1b8)" d="M19 31L0 26V8l19 5v18z"/><path fill="var(--color1, #afb1b8)" d="M9 1l17 5-7 7L2 8l7-7zm0-1L0 8l19 5 9-8L9 0zm11 31l8-8-8-2v10z"/></symbol><symbol id="icon-logo-5" viewBox="0 0 40 32"><path fill="var(--color1, #afb1b8)" d="M3 27a1 1 0 010 2H0v-4h3v2zm-2-1h1a1 1 0 000-1H1v1zm1 2l1-1H1v1h1zm5 1l-2-2v2-4h2a1 1 0 010 2v2zm-2-2h1l1-1a1 1 0 000-1H5v2zm7 1h-2v1H9l1-4h1l2 4h-1v-1zm0-1l-1-2-1 2h2zm6 2h-1l-2-3v3h-1v-4h1l2 2v-2h1v4zm4-2v2h-3v-4h3a3 3 0 010 2zm0 0a1 1 0 000-2h-2v3l2-1zM12 0s11 4 11 10v11s-11-5-11-11V0zm21 18l7-2v-4l-7 6z"/><path fill="var(--color1, #afb1b8)" d="M32 19c1-3 5-6 8-7V3S25 8 25 17v15l2-1v-1c0-4 2-8 5-11z"/><path fill="var(--color1, #afb1b8)" d="M30 25l1-3c-2 2-4 5-4 9l4-2-1-4zm1 0v4c4-3 9-7 9-12-3 0-6 1-8 3l-1 5z"/></symbol><symbol id="icon-logo-4" viewBox="0 0 60 32"><path fill="var(--color2, #2196f3)" d="M9 10c-2 0-3 1-3 3s1 3 3 3 3-2 3-3-1-3-3-3zm23-1c0-3-1-5-3-7l-6-2-7 2-2 7v12s18-2 18-12zM0 25l1 5a6 6 0 009 0c2-2 2-3 2-5v-9S0 18 0 25zm6 2H5l-1-1v-1l1-1a1 1 0 012 0v1a1 1 0 010 1 1 1 0 01-1 1zm13-1h-2v2-4h2v1h-2 2v1zm3-1v2l-1 1-1-1h-1v-2l1-1h1l1 1zm-1 0h-1v2h1v-2zm3 1h-1v-1h-1l1-1h1l1 1h-2 1l1 1v1l-2 1v-1h-1v-1h1v1h1v-1zm4-1h-1v3h-1v-3h-1v-1h3v1zm2 1h-2v1h2v1h-2v-4h2v1h-2 2v1zm1 0v2-4l2 1-1 1 1 1v1h-1l-1-2zm0-1h1-1zm4 1v2h-1v-4h2v2h-1zm0-1h1-1zm4 1h-1v1h1v1h-2v-4h2v1h-1 1v1zm3-1h-1v3h-1v-3h-1v-1h3v1zm3 1h-2v1h2v1h-3v-4h3v1h-2 2v1zm1 0h-1v2-4h1l2 1h-1v1l1 1v1h-1l-1-2zm-1-1h2-2zm5 1h-1l-1-1v-1h2v1h-2 1l1 1v1l-1 1-1-1v-1l1 1 1-1z"/></symbol><symbol id="icon-logo-3" viewBox="0 0 31 32"><path fill="var(--color1, #afb1b8)" d="M4 31v1l-1-1a1 1 0 010-1l1-1h1l-1 1v-1l-1 1v1h1zm5 0H7v-2h2v2zm0 0v-1H8v-1H7v2h2zm3 0h1v-2 2h-1l-1-1v2h-1v-3h1l1 2zm4 0v1-3h1v2h-1zm0 0h1v-1a1 1 0 000-1h-1v2zm5 1v-1h-2v1-3h1l1 3zm-2-1h1l-1-1v-1 2zm3-2h1l2 2-2-1v2h-1v-3zm6 2v1h-1v-1l-1-2h1l1 1a1 1 0 010 1v-2 2zm-16-6h1l6-6 2-7-3-3c1 3 1 6-1 8l-5 8z"/><path fill="var(--color1, #afb1b8)" d="M11 24c2-2 5-4 5-7 2-3 2-6 1-9l-4-4c2 3 2 6 2 8 0 5-1 9-4 12zm14-9c-1 4-4 7-7 9l5-3c2-1 2-3 3-5l-1-1z"/><path fill="var(--color1, #afb1b8)" d="M24 14l-2-2c0 3-1 5-3 7l-5 6h2l5-5 3-6zM11 3L8 0 2 4c-2 2-2 5-2 8s1 5 3 7c1 3 4 4 7 5a18 18 0 001-21zm20 11c0-4-2-7-4-9a13 13 0 00-14-3l17 17 1-5z"/></symbol><symbol id="icon-logo-2" viewBox="0 0 25 32"><path fill="var(--color1, #afb1b8)" d="M10 2h3V1l-3-1C6 0 3 1 1 3V2v18l8-2h1v-2l-7 1H2V4l8-2z"/><path fill="var(--color1, #afb1b8)" d="M15 4l-3-1v17l3 1 9-3V1l-9 3zm7 0v13a17 17 0 01-9 2h1-1V5h2l7-1zM2 26H0v4h1a1 1 0 001-1H1v1-4 1h1v-1zm4 0a1 1 0 00-2 0v4a1 1 0 001 0h1a1 1 0 000-1v-3zm-1 3v1H4v-4h1v3zm5 1v-4H9v2l-1-2H7v4h1v-2l1 1v-1 2h1zm4-4h-2v4-2h2a3 3 0 000-2zm-1 1v1h-1v-2h1v1zm4-1h-1l-1 4 1-1h1v1-4zm-1 2v-1l1 1h-1zm4 0l-1-2v2h1v2h1v-4h-1v2zm4-2l-1 2v-2h-1l1 2v2h1v-2l1-2h-1zM0 31v1h1v-1H0zm2 0v1h1l-1-1zm3 0v1l-1-1h2-2v1h2v-1H5zm2 0zm2 0zm3 0h-1l1 1v-1zm2 0h-1v1h1v-1zm4 0h-1 1zm2 0zm2 0zm0 0zm2 0h1-1z"/></symbol><symbol id="icon-logo-1" viewBox="0 0 29 32"><path fill="var(--color1, #afb1b8)" d="M4 0l4 4h14v13l4 4V0H4z"/><path fill="var(--color1, #afb1b8)" d="M0 4v21h22v-8L9 4H0zm18 18H3V8h1v13h14v1zM6 29v1-1l-1-1h1v1zm2 0v1H7l1-2 1 2-1-1zm0 0v-1 1zm2 0v-1h2l-1 1 1 1v-1l-1 1-1-1zm1 0h-1 1zm4 0l-1 1h-1v-2a1 1 0 011 0h1-2v1h2zm2 0l-1 1-1-1v-1h2v1zm0 0v-1h-2v1h2z"/></symbol><symbol id="icon-instagram" viewBox="0 0 32 32"><path fill="var(--color1, #afb1b8)" d="M32 10V5l-3-2-2-1-5-2L4 2h1L2 5l-2 5 2 18v-1l3 3 5 2 18-2h-1l5-3v-5-6-7 1zm-3 12v4l-3 3H6l-3-3v-4-8-8l3-3h20l3 3v17-1z"/><path fill="var(--color1, #afb1b8)" d="M16 8a8 8 0 000 16 8 8 0 000-16zm0 13a5 5 0 110-10 5 5 0 110 10zM27 8a2 2 0 01-5 0 2 2 0 015 0z"/></symbol><symbol id="icon-twitter" viewBox="0 0 32 32"><path fill="var(--color1, #afb1b8)" d="M32 6h-3l1-3-3 2a6 6 0 10-11 6C10 11 5 8 2 5L1 7c0 3 2 5 4 6H2c0 3 1 5 4 6a6 6 0 01-3 0c2 2 3 5 7 5a13 13 0 01-10 2l10 3c10 0 19-9 19-19l3-4z"/></symbol><symbol id="icon-facebook" viewBox="0 0 32 32"><path fill="var(--color1, #afb1b8)" d="M21 5h3V0h-5c-3 0-6 3-6 8v5H8v5h5v14h6V18h3l2-5h-5V8l2-3z"/></symbol><symbol id="icon-linkedin" viewBox="0 0 32 32"><path fill="var(--color1, #afb1b8)" d="M32 32V21c0-7-2-11-8-11l-6 3v-2h-7v21h7V21c0-2 1-5 4-5s4 3 4 5v11h6zM0 11h6v21H0V11zM3 0L0 3c0 3 2 5 3 5 3 0 5-2 5-5 0-1-2-3-5-3z"/></symbol><symbol id="icon-envelope" viewBox="0 0 43 32"><path fill="var(--color3, #757575)" d="M40 0H5L0 5v24l5 3h35l3-3V5l-3-5zm0 3L21 19 3 3h37zm0 26H3V5l18 16L40 5v24z"/></symbol><symbol id="icon-smartphone" viewBox="0 0 20 32"><path fill="var(--color3, #757575)" d="M18 0H4L0 4v26l4 2h14l2-2V4l-2-4zM4 2h14v22H2V4l2-2zm14 28H2v-4h16v4z"/><path fill="var(--color3, #757575)" d="M4 28c2 0 2 0 0 0 0 2 0 2 0 0-2 0-2 0 0 0z"/></symbol></defs></svg>