<svg aria-hidden="true" style="position:absolute;width:0;height:0" xmlns="http://www.w3.org/2000/svg" overflow="hidden">
<defs>
<symbol id="icon-envelope" viewBox="0 0 43 32">
    <path fill="var(--color3, #757575)" d="M40 0H5L0 5v24l5 3h35l3-3V5l-3-5zm0 3L21 19 3 3h37zm0 26H3V5l18 16L40 5v24z"/>
</symbol>
<symbol id="icon-smartphone" viewBox="0 0 20 32">
    <path fill="var(--color3, #757575)" d="M17 0H3C1 0 0 1 0 3v26c0 2 1 3 3 3h14c2 0 3-1 3-3V3c0-2-1-3-3-3zM3 2h14l1 1v21H2V3l1-1zm14 28H3l-1-1v-3h16v3l-1 1z"/>
    <path fill="var(--color3, #757575)" d="M5 27v2H3v-2h2z"/>
</symbol>
<symbol id="icon-instagram" viewBox="0 0 32 32">
    <path fill="var(--color2, #afb1b8)" d="M32 9l-1-3c0-2-1-3-2-3l-2-2-4-1A110 110 0 006 1L3 3C2 3 1 4 1 6L0 9a110 110 0 001 17c0 2 1 3 2 3l3 2 3 1a117 117 0 0018-1c2-1 3-2 4-5l1-3v-7-7zm-3 13v3c-1 2-2 3-4 3l-2 1a113 113 0 01-16-1l-2-1-1-2-1-3A113 113 0 014 7l1-2 2-1 3-1a113 113 0 0116 1l1 1 2 2v15z"/>
    <path fill="var(--color2, #afb1b8)" d="M16 8a8 8 0 100 16 8 8 0 000-16zm0 13a5 5 0 110-10 5 5 0 010 10zM27 7a2 2 0 11-4 0 2 2 0 014 0z"/>
</symbol>
<symbol id="icon-twitter" viewBox="0 0 32 32">
    <path fill="var(--color2, #afb1b8)" d="M32 6l-4 1c2-1 3-2 3-4l-4 2a7 7 0 00-11 6C10 11 5 8 2 4a7 7 0 002 9l-3-1c0 3 3 6 6 7a7 7 0 01-3 0c0 2 3 4 6 4a13 13 0 01-10 3A19 19 0 0029 9l3-3z"/>
</symbol>
<symbol id="icon-facebook" viewBox="0 0 32 32">
    <path fill="var(--color2, #afb1b8)" d="M21 5h3V0h-4c-4 0-7 3-7 8v4H8v6h5v14h6V18h4l1-6h-5V8c0-2 0-3 2-3z"/>
</symbol>
<symbol id="icon-linkedin" viewBox="0 0 32 32">
    <path fill="var(--color2, #afb1b8)" d="M32 32V20c0-5-1-10-8-10-3 0-5 2-6 4v-3h-7v21h7V21c0-2 0-5 4-5 3 0 3 3 3 6v10h7zM1 11h6v21H1V11zM4 0C2 0 0 2 0 4s2 4 4 4 4-2 4-4-2-4-4-4z"/>
</symbol>
<symbol id="icon-logo-1" viewBox="0 0 29 32">
    <path fill="var(--color2, #afb1b8)" d="M4 0l5 4h13v13l4 4V0H4z"/>
    <path fill="var(--color2, #afb1b8)" d="M0 4v21h22v-8L9 4H0zm18 18H3V8h1v13h14v1zM6 29l1-1-1 1v1-1l-1-1h1v1zm3 0H8l-1 1 1-2 1 2v-1zm-1 0v-1 1zm2 0v-1h1v1h1v1h-2v-1zm1 1v-1h-1 1v1zm0-2zm4 1l-1 1h-1v-1c0-1 0 0 0 0v-1h2-1-1v1l1 1v-1c0-1 0 0 0 0h1zm2 0l-1 1h-1v-1-1a1 1 0 011 0h1v1zm0 0l-1-1-1 1h1v0h1z"/>
</symbol>
<symbol id="icon-logo-2" viewBox="0 0 25 32">
    <path fill="var(--color2, #afb1b8)" d="M10 2h3V0a13 13 0 00-3 0A18 18 0 000 3v17a19 19 0 019-2h1v-2a21 21 0 00-7 1H2V4l1-1a17 17 0 017-1z"/>
    <path fill="var(--color2, #afb1b8)" d="M15 4a16 16 0 01-4-1v18h4a18 18 0 009-3V1a20 20 0 01-9 3zm7 0v13a17 17 0 01-8 2h-1V5h2a21 21 0 007-1zM2 26a1 1 0 00-1 0 1 1 0 00-1 0v4h1a1 1 0 001-1H1v-2-1 1h1a1 1 0 000-1zM5 26a1 1 0 00-1 0v4a1 1 0 001 0l1-1v-2-1H5zm0 3H4v-3h1v3zM10 30v-4H9v2l-1-2H7v4h1v-3l1 2v-2 3h1zM14 26h-2v4-2h2a3 3 0 000-2zm-1 1v1h-1v-2h1v1zM16 26l-1 4h1v-1h1v1l-1-4zm0 2v-1 1zM20 28l-1-2v4-3l1 3h1v-4h-1v2zM24 26l-1 1v-1h-1l1 2v2h1v-2l1-2h-1zM0 31v1-1h1-1zM2 31v1h1v-1H2zm0 1l1-1v1H2zM5 32v-1H4l1 1v-1 1zM7 31v1h1-1v-1zM9 31v1-1zM11 32v-1 1-1 1h1v-1h-1v1zM13 32h1v-1h-1 1-1v1h1-1zM18 31h-1v1h1v-1zM20 32v-1h-1v1h1zM22 32v-1 1h1-1zm0-1zM24 32h1v-1h-1 1-1v1h1-1z"/>
</symbol>
<symbol id="icon-logo-3" viewBox="0 0 31 32">
    <path fill="var(--color2, #afb1b8)" d="M5 31v1H4 3a1 1 0 010-1 2 2 0 010-1 1 1 0 010-1 2 2 0 012 0H4l-1 1v1h1a1 1 0 001 0zM9 30v1l-1 1H7v-1H6v-1l1-1h2v1zm0 0l-1-1H7a1 1 0 000 1v1h1a1 1 0 001 0v-1zM12 31l1-2h1v3h-1v-2-1l-1 2-1-2v3-3l1 2zM16 31v1h-1v-3h2v2h-1zm0-1h1a1 1 0 000-1h-1v1zM21 32l-1-1h-1v1h-1l1-3h1l1 3zm-2-1h1v-1-1 1l-1 1zM23 29l1 2v-2h1v3h-1l-1-2v2h-1v-3h1zM28 31v1h-1v-1l-1-2h1v1l1-1h1l-1 2zM12 24l7-5c2-2 2-5 2-7l-3-3c1 3 0 6-1 8l-5 7z"/>
    <path fill="var(--color2, #afb1b8)" d="M11 24c3-2 5-4 6-7V8l-4-4a18 18 0 01-2 20zM25 15a14 14 0 01-7 9l5-3c2-1 3-3 3-5l-1-1z"/>
    <path fill="var(--color2, #afb1b8)" d="M24 14l-2-2-2 7-6 5h1c3-1 5-2 6-4l3-6zM11 3L9 0 2 5c-2 2-2 4-2 7s1 5 3 8 4 3 7 4a18 18 0 001-21zM31 14c0-3-2-7-4-9s-6-4-10-4l-4 1 17 16 1-4z"/>
</symbol>
<symbol id="icon-logo-4" viewBox="0 0 60 32">
    <path fill="var(--color1, #2196f3)" d="M9 10c-2 0-3 1-3 3s1 3 3 3 3-2 3-3-1-3-3-3zm23-1c0-3-1-5-3-7l-6-2-7 2-2 7v12s18-2 18-12zM0 25l1 5a6 6 0 009 0c2-2 2-3 2-5v-9S0 18 0 25zm6 2H5l-1-1v-1l1-1a1 1 0 012 0v1a1 1 0 010 1 1 1 0 01-1 1zm13-1h-2v2-4h2v1h-2 2v1zm3-1v2l-1 1-1-1h-1v-2l1-1h1l1 1zm-1 0h-1v2h1v-2zm3 1h-1v-1h-1l1-1h1l1 1h-2 1l1 1v1l-2 1v-1h-1v-1h1v1h1v-1zm4-1h-1v3h-1v-3h-1v-1h3v1zm2 1h-2v1h2v1h-2v-4h2v1h-2 2v1zm1 0v2-4l2 1-1 1 1 1v1h-1l-1-2zm0-1h1-1zm4 1v2h-1v-4h2v2h-1zm0-1h1-1zm4 1h-1v1h1v1h-2v-4h2v1h-1 1v1zm3-1h-1v3h-1v-3h-1v-1h3v1zm3 1h-2v1h2v1h-3v-4h3v1h-2 2v1zm1 0h-1v2-4h1l2 1h-1v1l1 1v1h-1l-1-2zm-1-1h2-2zm5 1h-1l-1-1v-1h2v1h-2 1l1 1v1l-1 1-1-1v-1l1 1 1-1z"/>
</symbol>
<symbol id="icon-logo-5" viewBox="0 0 40 32">
    <path fill="var(--color2, #afb1b8)" d="M3 27a1 1 0 010 1l-1 1H0v-5h2l1 1v1H2l1 1zm-2-1h1a1 1 0 000-1H1v1zm1 2a1 1 0 000-1H1v1h1zM7 29l-1-2H5v2-5h1l1 1a1 1 0 010 1v1l1 2H7zm-2-3h2a1 1 0 000-1H5v1zM12 28h-2v1H9l1-5h1l2 5h-1v-1zm-1-1v-2l-1 2h1zM18 29h-1l-2-3v3h-1v-5h1l2 3v-3h1v5zM23 28h-1l-2 1h-1v-5h1l2 1h1a3 3 0 010 3zm-1-1a2 2 0 000-2h-2v3l2-1zM12 0s11 4 11 10v11s-11-4-11-11V0zM33 18l7-2v-4l-7 6z"/>
    <path fill="var(--color2, #afb1b8)" d="M32 19c2-3 5-6 8-7V2S24 8 25 17v15l1-1v-1c1-4 3-8 6-11z"/>
    <path fill="var(--color2, #afb1b8)" d="M30 25l1-3a14 14 0 00-4 9l4-2-1-4zM31 25v4c4-3 9-7 9-12-3 0-6 1-8 4l-1 4z"/>
</symbol>
<symbol id="icon-logo-6" viewBox="0 0 62 32">
    <path fill="var(--color2, #afb1b8)" d="M31 15v-5h3v2h-1v-2h-1v5h1v-2h1v2h-3zm4 0v-5h3l1 1v2l-1 2h-3zm3 0v-5h-2v5a1 1 0 001 0 1 1 0 001 0zm2-5h1l1 3 1-3h1l1 5h-2v-4l-1 4-1-4v4h-1v-5zm5 0h2l2 1-2 2v2h-2v-5zm2 2a1 1 0 001 0v-2h-1v2zm4-2l2 5h-1l-1-1-1 1h-1l2-5zm0 3v-2 2zm3-3h1l1 3v-3h1v5h-1l-1-3v3h-1v-5zm5 3l-1-3h1l1 2 1-2v5h-2v-2zm-26 5h-1v2h-1v-2h2zm2 2v-1h-1l-1 1 1-2h1v2zm-1-1h1v-1h-1v1zm4 1v-1h1v1a1 1 0 01-1 0h-1l-1-1 1-1h1-1v1l1 1zm3 0zm3 0h-1v-2h1v2zm1-2l2 2v-2 2l-2-2v2-2zm5 0h-1v2h-1v-2h2zM10 1l17 5v16l-17-5V1zM9 0v18l19 5V5L9 0z"/>
    <path fill="var(--color2, #afb1b8)" d="M19 31L0 26V8l19 5v18z"/>
    <path fill="var(--color2, #afb1b8)" d="M9 1l17 5-7 7L2 8l7-7zm0-1L0 8l19 5 9-8L9 0zm11 31l8-8-8-2v10z"/>
</symbol>
</defs>
</svg>