<svg aria-hidden="true" style="position: absolute; width: 0; height: 0; overflow: hidden;" version="1.1" xmlns="http://www.w3.org/2000/svg" xmlns:xlink="http://www.w3.org/1999/xlink">
<defs>
<symbol id="icon-envelope" viewBox="0 0 32 32">
<path d="M30 4h-26l-4 4v18l4 2h26l2-2v-18l-2-4zM30 6l-14 12-14-12h28zM30 26h-28v-18l14 12 14-12v18z"></path>
</symbol>
<symbol id="icon-facebook" viewBox="0 0 32 32">
<path d="M20.8 4.8h3.2v-4.8h-4.8c-3.2 0-6.4 3.2-6.4 8v4.8h-4.8v4.8h4.8v14.4h6.4v-14.4h3.2l1.6-4.8h-4.8v-4.8l1.6-3.2z"></path>
</symbol>
<symbol id="icon-instagram" viewBox="0 0 32 32">
<path d="M32 9.6v-4.8l-3.2-1.6-1.6-1.6-4.8-1.6c-6.261 0.060-12.343 0.64-18.259 1.698l0.659-0.098-3.2 3.2-1.6 4.8c0.060 6.261 0.64 12.343 1.698 18.259l-0.098-0.659 3.2 3.2 4.8 1.6c6.289-0.097 12.369-0.675 18.296-1.7l-0.696 0.1 4.8-3.2v-4.8c0.112-1.912 0.175-4.149 0.175-6.4s-0.064-4.488-0.189-6.708l0.014 0.308zM28.8 22.4v3.2l-3.2 3.2h-3.2c-2.394 0.182-5.185 0.286-8 0.286s-5.606-0.104-8.369-0.308l0.369 0.022-3.2-3.2v-3.2c-0.182-2.394-0.286-5.185-0.286-8s0.104-5.606 0.308-8.369l-0.022 0.369 3.2-3.2h3.2c2.394-0.18 5.185-0.282 8-0.282s5.606 0.102 8.37 0.304l-0.37-0.022 3.2 3.2v3.2c0.117 1.913 0.183 4.149 0.183 6.4s-0.066 4.487-0.197 6.706l0.014-0.306z"></path>
<path d="M16 8c-4.418 0-8 3.582-8 8s3.582 8 8 8v0c4.418 0 8-3.582 8-8s-3.582-8-8-8v0zM16 20.8c-2.651 0-4.8-2.149-4.8-4.8s2.149-4.8 4.8-4.8v0c2.651 0 4.8 2.149 4.8 4.8s-2.149 4.8-4.8 4.8v0zM27.2 8c0 1.325-1.075 2.4-2.4 2.4s-2.4-1.075-2.4-2.4v0c0-1.325 1.075-2.4 2.4-2.4s2.4 1.075 2.4 2.4v0z"></path>
</symbol>
<symbol id="icon-linkedin" viewBox="0 0 32 32">
<path d="M32 32v-11.2c0-6.4-1.6-11.2-8-11.2l-6.4 3.2v-1.6h-6.4v20.8h6.4v-11.2c0-1.6 1.6-4.8 4.8-4.8s3.2 3.2 3.2 4.8v11.2h6.4zM0 11.2h6.4v20.8h-6.4v-20.8zM3.2 0l-3.2 3.2c0 3.2 1.6 4.8 3.2 4.8 3.2 0 4.8-1.6 4.8-4.8 0-1.6-1.6-3.2-4.8-3.2z"></path>
</symbol>
<symbol id="icon-smartphone" viewBox="0 0 32 32">
<path d="M24 0h-14l-4 4v26l4 2h14l2-2v-26l-2-4zM10 2h14v22h-16v-20l2-2zM24 30h-16v-4h16v4z"></path>
<path d="M10 28c2 0 2 0 0 0 0 2 0 2 0 0-2 0-2 0 0 0z"></path>
</symbol>
<symbol id="icon-twitter" viewBox="0 0 32 32">
<path d="M32 6.4h-3.2l1.6-3.2-3.2 1.6c-1.133-1.955-3.215-3.25-5.6-3.25-3.562 0-6.45 2.888-6.45 6.45 0 1.177 0.315 2.281 0.866 3.231l-0.017-0.031c-6.4 0-11.2-3.2-14.4-6.4-0.257 0.666-0.406 1.437-0.406 2.242 0 2.518 1.454 4.696 3.568 5.741l0.037 0.017h-3.2c0 3.2 1.6 4.8 4.8 6.4-0.48 0.129-1.031 0.203-1.6 0.203s-1.12-0.074-1.645-0.213l0.045 0.010c1.6 1.6 3.2 4.8 6.4 4.8-1.917 1.206-4.248 1.922-6.746 1.922-1.012 0-1.996-0.117-2.94-0.339l0.087 0.017 9.6 3.2c10.604 0 19.2-8.596 19.2-19.2v0l3.2-3.2z"></path>
</symbol>
<symbol id="icon-logo-6" viewBox="0 0 62 32">
<path d="M31.304 14.609l-0.696-1.391v-2.087l0.696-1.391h2.783v2.087h-0.696v-0.696l-0.696-0.696h-0.696v4.174h0.696v-0.696h0.696v-0.696h0.696v1.391l-1.391 0.696-1.391-0.696zM35.478 14.609v-4.87h2.783l0.696 1.391v2.087l-0.696 1.391-1.391 0.696-1.391-0.696zM37.565 14.609v-4.174h-1.391v4.174c0.1 0.059 0.22 0.093 0.348 0.093s0.248-0.035 0.351-0.095l-0.003 0.002c0.1 0.059 0.22 0.093 0.348 0.093s0.248-0.035 0.351-0.095l-0.003 0.002zM40.348 9.739h0.696l0.696 3.478 1.391-3.478h0.696l0.696 5.565h-1.391v-4.174l-0.696 4.174h-0.696l-0.696-4.174v4.174h-1.391l0.696-5.565zM45.217 9.739h2.087c0.696 0 1.391 0 1.391 1.391l-1.391 1.391h-0.696v2.783h-1.391v-5.565zM47.304 11.826c0.1 0.059 0.22 0.093 0.348 0.093s0.248-0.035 0.351-0.095l-0.003 0.002v-1.391h-1.391v1.391h0.696zM50.783 9.739h0.696l1.391 5.565h-0.696l-0.696-1.391h-0.696l-0.696 1.391h-0.696l1.391-5.565zM51.478 13.217l-0.696-2.087v2.087h0.696zM53.565 9.739h1.391l1.391 2.783v-2.783h0.696v5.565h-0.696l-1.391-3.478v3.478h-1.391v-5.565zM59.13 13.217l-1.391-3.478h1.391l0.696 2.087 0.696-2.087h0.696l-0.696 3.478v2.087h-1.391v-2.087zM32.696 18.087h-0.696v2.087h-0.696v-2.087h1.391zM35.478 20.174l-0.696-0.696h-0.696l-0.696 0.696 0.696-2.087h0.696l0.696 2.087zM34.087 19.478h0.696v-1.391h-0.696v1.391zM37.565 20.174c0.104 0.028 0.224 0.044 0.348 0.044s0.243-0.016 0.358-0.046l-0.010 0.002v-0.696h0.696v0.696c-0.2 0.117-0.44 0.186-0.696 0.186s-0.496-0.069-0.702-0.19l0.007 0.004h-0.696c-0.31-0.142-0.553-0.386-0.692-0.687l-0.004-0.009v-0.696c0.142-0.31 0.386-0.553 0.687-0.692l0.009-0.004h0.696c0.105-0.019 0.225-0.029 0.348-0.029s0.243 0.011 0.36 0.031l-0.012-0.002c-0.104-0.028-0.224-0.044-0.348-0.044s-0.243 0.016-0.358 0.046l0.010-0.002h-0.696v1.391c0 0.384 0.311 0.696 0.696 0.696v0zM41.043 20.174v0 0zM43.826 20.174h-0.696v-2.087h0.696v2.087zM45.217 18.087l1.391 2.087v-2.087h0.696v2.087h-0.696l-1.391-2.087v2.087h-0.696v-2.087h0.696zM50.087 18.087h-1.391v0.696h0.696v0.696h-0.696v0.696h-0.696v-2.087h2.087zM9.739 1.391l17.391 4.174v16l-17.391-4.174v-16zM9.043 0v18.087l18.783 4.87v-18.087l-18.783-4.87z"></path>
<path d="M18.783 31.304l-18.783-4.87v-18.087l18.783 4.87v18.087z"></path>
<path d="M9.043 1.391l16.696 4.174-6.957 6.957-16.696-4.87 6.957-6.261zM9.043 0l-9.043 8.348 18.783 4.87 9.043-8.348-18.783-4.87zM20.174 30.609l7.652-7.652-7.652-2.087v9.739z"></path>
</symbol>
<symbol id="icon-logo-5" viewBox="0 0 40 32">
<path d="M2.723 26.553l0.681 0.681c0.007 0.053 0.011 0.114 0.011 0.176 0 0.506-0.276 0.948-0.686 1.182l-0.007 0.003h-2.723v-4.085h2.723c0.376 0 0.681 0.305 0.681 0.681v0l-0.681 0.681v0.681zM0.681 25.872h1.362c0.057-0.098 0.091-0.215 0.091-0.34s-0.034-0.243-0.093-0.344l0.002 0.003h-1.362v0.681zM2.043 27.915c0.376 0 0.681-0.305 0.681-0.681v0c0-0.376-0.305-0.681-0.681-0.681v0h-1.362v1.362h1.362zM6.809 28.596l-1.362-1.362v1.362h-0.681v-4.085h2.723c0.283 0.251 0.461 0.615 0.461 1.021s-0.178 0.771-0.46 1.020l-0.001 0.001h-0.681l0.681 2.043h-0.681zM5.447 26.553h0.681l0.681-0.681c0.057-0.098 0.091-0.215 0.091-0.34s-0.034-0.243-0.093-0.344l0.002 0.003h-1.362v1.362zM11.574 27.915h-2.043v0.681h-0.681l1.362-4.085h0.681l2.043 4.085h-1.362v-0.681zM11.574 27.234l-0.681-2.043-0.681 2.043h1.362zM17.702 28.596h-0.681l-2.043-2.723v2.723h-1.362v-4.085h1.362l2.043 2.723v-2.723h0.681v4.085zM22.468 27.234l-0.681 1.362h-2.723v-4.085h2.723l0.681 0.681c0.126 0.302 0.199 0.653 0.199 1.021s-0.073 0.719-0.205 1.039l0.007-0.018zM21.787 27.234c0.283-0.251 0.461-0.615 0.461-1.021s-0.178-0.771-0.46-1.020l-0.001-0.001h-2.043v2.723h0.681l1.362-0.681zM12.255 0s10.894 4.085 10.894 10.213v10.894s-11.574-4.766-10.894-10.894v-10.213zM33.362 18.383c2.043-1.362 4.085-2.723 6.809-2.723v-3.404c-2.723 1.362-5.447 3.404-6.809 6.128z"></path>
<path d="M32 19.064c1.362-3.404 4.766-6.128 8.17-7.489v-8.851s-15.66 5.447-15.66 14.298v14.979l2.043-0.681v-1.362c0-4.085 2.043-8.17 5.447-10.894z"></path>
<path d="M29.957 24.511l0.681-2.723c-2.032 2.376-3.302 5.456-3.404 8.83l-0 0.021 3.404-1.362-0.681-4.766zM30.638 25.192l0.681 3.404c4.085-2.723 8.851-6.809 8.851-11.574-3.404 0-6.128 1.362-8.17 3.404l-1.362 4.766z"></path>
</symbol>
<symbol id="icon-logo-4" viewBox="0 0 60 32">
<path d="M8.93 9.674c-1.488 0-2.977 1.488-2.977 2.977s1.488 2.977 2.977 2.977c2.233 0 2.977-1.488 2.977-2.977s-0.744-2.977-2.977-2.977zM32 8.93c0-2.977-1.488-4.465-2.977-6.698-1.488-1.488-3.721-2.233-5.954-2.233l-6.698 2.233c-1.488 2.233-2.233 3.721-2.233 6.698v11.907s17.86-1.488 17.86-11.907zM0 25.302l1.488 4.465c1.096 1.239 2.69 2.016 4.465 2.016s3.369-0.777 4.46-2.009l0.005-0.006c1.488-1.488 1.488-2.977 1.488-4.465v-8.93s-11.907 1.488-11.907 8.93zM5.954 26.791h-0.744l-0.744-0.744c-0.158-0.233-0.252-0.519-0.252-0.828 0-0.645 0.411-1.195 0.985-1.401l0.010-0.003c0.213-0.125 0.47-0.199 0.744-0.199s0.531 0.074 0.751 0.203l-0.007-0.004 0.744 0.744c0.125 0.213 0.199 0.47 0.199 0.744s-0.074 0.531-0.203 0.751l0.004-0.007c-0.26 0.455-0.743 0.757-1.296 0.757-0.068 0-0.135-0.005-0.2-0.013l0.008 0.001zM18.605 26.047h-1.488v1.488-3.721h1.488v0.744h-1.488v0.744h1.488v0.744zM21.581 25.302v1.488c-0.152 0.332-0.413 0.592-0.735 0.74l-0.009 0.004-0.744-0.744h-0.744v-2.233c0.152-0.332 0.413-0.592 0.735-0.74l0.009-0.004h0.744l0.744 0.744v0.744zM20.837 25.302v-0.744h-0.744v2.233h0.744v-1.488zM23.814 26.047h-0.744v-0.744l-0.744-0.744 0.744-0.744h0.744l0.744 0.744v0.744h-0.744v-0.744h-0.744v0.744h0.744l0.744 0.744v0.744l-1.488 0.744v-0.744h-0.744v-0.744h0.744v0.744h0.744v-0.744zM27.535 24.558h-0.744v2.977h-0.744v-2.977h-1.488v-0.744h2.977v0.744zM29.767 26.047h-1.488v0.744h1.488v0.744h-2.233v-3.721h2.233v0.744h-1.488v0.744h1.488v0.744zM31.256 26.047v1.488h-0.744v-3.721h0.744l1.488 1.488-0.744 0.744 0.744 0.744v0.744h-0.744l-0.744-1.488zM31.256 25.302h0.744v-0.744h-0.744v0.744zM34.977 26.047v1.488h-0.744v-3.721h2.233v2.233h-1.488zM34.977 25.302h0.744v-0.744h-0.744v0.744zM38.698 26.047h-0.744v0.744h1.488v0.744h-2.233v-3.721h2.233v0.744h-1.488v0.744h0.744v0.744zM42.419 24.558h-1.488v2.977h-0.744v-2.977h-0.744v-0.744h2.977v0.744zM44.651 26.047h-1.488v0.744h1.488v0.744h-2.233v-3.721h2.233v0.744h-1.488v0.744h1.488v0.744zM46.14 26.047h-0.744v1.488h-0.744v-3.721h1.488l1.488 1.488h-0.744v0.744l0.744 0.744v0.744h-0.744l-0.744-1.488zM45.395 25.302h1.488v-0.744h-1.488v0.744zM49.86 26.047h-0.744l-1.488-1.488 0.744-0.744h1.488v1.488l-0.744-0.744h-0.744v0.744h0.744l0.744 0.744v0.744l-0.744 0.744-0.744-0.744h-0.744v-0.744h0.744l0.744 0.744 0.744-0.744z"></path>
</symbol>
<symbol id="icon-logo-3" viewBox="0 0 31 32">
<path d="M4.465 31.256v0l-0.744 0.744-0.744-0.744c-0.030-0.112-0.047-0.24-0.047-0.372s0.017-0.26 0.050-0.382l-0.002 0.010c-0.030-0.112-0.047-0.24-0.047-0.372s0.017-0.26 0.050-0.382l-0.002 0.010c0.152-0.332 0.413-0.592 0.735-0.74l0.009-0.004c0.112-0.030 0.24-0.047 0.372-0.047s0.26 0.017 0.382 0.050l-0.010-0.002h0.744l-0.744 0.744v-0.744c-0.107-0.063-0.235-0.1-0.372-0.1s-0.265 0.037-0.376 0.102l0.003-0.002-0.744 0.744v1.488h1.488zM8.93 30.512v0.744h-2.233v-2.233h2.233v1.488zM8.93 30.512v-0.744h-0.744v-0.744h-0.744c-0.411 0-0.744 0.333-0.744 0.744v0 1.488h1.488c0.411 0 0.744-0.333 0.744-0.744v0zM11.907 30.512h0.744l0.744-1.488v0.744l-0.744 1.488h-0.744l-0.744-1.488v2.233h-0.744v-2.977h0.744l0.744 1.488zM15.628 30.512v1.488-2.977h1.488v1.488h-1.488zM15.628 30.512h1.488v-0.744c0.063-0.107 0.1-0.235 0.1-0.372s-0.037-0.265-0.102-0.376l0.002 0.003h-1.488v1.488zM20.837 32v-0.744h-2.233v0.744l0.744-2.977h0.744l0.744 2.977zM19.349 30.512h0.744l-0.744-0.744v-0.744 1.488zM22.326 29.023h0.744l1.488 2.233-1.488-1.488v2.233h-0.744v-2.977zM27.535 30.512v1.488h-0.744v-1.488l-0.744-1.488h0.744l0.744 0.744c0.030 0.112 0.047 0.24 0.047 0.372s-0.017 0.26-0.050 0.382l0.002-0.010v-0.744l0.744-0.744-0.744 1.488zM11.907 24.558h0.744l5.954-5.209c1.488-2.233 2.233-5.209 2.233-7.442l-2.977-2.977c0.744 2.977 0.744 5.954-0.744 8.186-0.744 2.977-2.977 5.209-5.209 7.442z"></path>
<path d="M11.163 23.814c2.233-1.488 4.465-3.721 5.209-6.698 1.488-2.977 1.488-5.954 0.744-8.93l-3.721-3.721c1.18 2.32 1.871 5.058 1.871 7.958 0 4.343-1.55 8.324-4.127 11.419l0.023-0.029zM24.558 14.884c-0.953 3.843-3.379 6.999-6.63 8.894l-0.067 0.036 5.209-2.977c1.488-0.744 2.233-2.977 2.977-4.465l-1.488-1.488z"></path>
<path d="M23.814 14.14l-2.233-2.233c0 2.977-0.744 5.209-2.233 7.442l-5.209 5.209h1.488c2.233-0.744 3.721-2.233 5.209-4.465 1.488-1.488 2.977-3.721 2.977-5.954zM11.163 2.977l-2.977-2.977c-2.233 0.744-4.465 2.233-5.954 4.465s-2.233 4.465-2.233 7.442 0.744 5.209 2.977 7.442c1.488 2.233 4.465 3.721 7.442 4.465 2.332-2.989 3.74-6.798 3.74-10.936 0-3.69-1.119-7.118-3.036-9.965l0.040 0.064zM30.512 14.14c0-3.721-1.488-6.698-3.721-8.93-2.416-2.378-5.733-3.846-9.394-3.846-1.706 0-3.337 0.319-4.837 0.9l0.091-0.031 17.116 16.372 0.744-4.465z"></path>
</symbol>
<symbol id="icon-logo-2" viewBox="0 0 25 32">
<path d="M10.462 1.846h0.615l1.846 0.615v-1.846c-0.901-0.309-1.948-0.528-3.032-0.613l-0.045-0.003c-0.006 0-0.013 0-0.021 0-3.39 0-6.567 0.914-9.298 2.509l0.088-0.047v17.846c2.306-1.322 5.026-2.203 7.926-2.456l0.074-0.005h1.231v-1.846c-2.438 0.037-4.759 0.485-6.914 1.277l0.145-0.047h-0.615v-13.538c2.149-1.109 4.681-1.784 7.365-1.846l0.020-0h0.615z"></path>
<path d="M14.769 3.692c-1.144-0.116-2.188-0.333-3.19-0.646l0.113 0.030v17.231l3.077 0.615c0.006 0 0.013 0 0.021 0 3.39 0 6.567-0.914 9.298-2.509l-0.088 0.047v-17.231c-2.662 1.501-5.835 2.407-9.215 2.461l-0.016 0zM21.538 3.692h0.615v13.538c-2.269 1.176-4.953 1.866-7.798 1.866-0.287 0-0.573-0.007-0.857-0.021l0.040 0.002h-0.615v-14.154h1.846c2.438-0.037 4.759-0.485 6.914-1.277l-0.145 0.047zM1.846 25.846c-0.088-0.052-0.194-0.082-0.308-0.082s-0.219 0.031-0.311 0.084l0.003-0.002h-0.615c-0.274 0.126-0.489 0.341-0.612 0.608l-0.003 0.008v3.077h0.615v0.615h0.615c0.376-0.215 0.626-0.614 0.626-1.072 0-0.056-0.004-0.111-0.011-0.165l0.001 0.006h-0.615v0.615c-0.088 0.052-0.194 0.082-0.308 0.082s-0.219-0.031-0.311-0.084l0.003 0.002v-3.077c0.088-0.052 0.194-0.082 0.308-0.082s0.219 0.031 0.311 0.084l-0.003-0.002v0.615h0.615v-0.615c0.025-0.092 0.039-0.198 0.039-0.308s-0.014-0.215-0.041-0.316l0.002 0.009zM5.538 25.846c-0.177-0.104-0.389-0.165-0.615-0.165s-0.439 0.061-0.621 0.168l0.006-0.003h-0.615v3.692l0.615 0.615c0.092 0.025 0.198 0.039 0.308 0.039s0.215-0.014 0.316-0.041l-0.009 0.002 0.615-0.615c0.025-0.092 0.039-0.198 0.039-0.308s-0.014-0.215-0.041-0.316l0.002 0.009v-3.077zM4.923 28.923c0.052 0.088 0.082 0.194 0.082 0.308s-0.031 0.219-0.084 0.311l0.002-0.003c-0.088 0.052-0.194 0.082-0.308 0.082s-0.219-0.031-0.311-0.084l0.003 0.002c-0.052-0.088-0.082-0.194-0.082-0.308s0.031-0.219 0.084-0.311l-0.002 0.003v-2.462c0.088-0.052 0.194-0.082 0.308-0.082s0.219 0.031 0.311 0.084l-0.003-0.002v2.462zM9.846 30.154v-4.308h-0.615l-0.615 1.846-0.615-1.846h-0.615v4.308h0.615v-2.462l0.615 1.231 0.615-1.231v2.462h0.615zM13.538 25.846h-1.846v4.308h0.615v-1.846h1.231v-0.615c0.040-0.185 0.062-0.398 0.062-0.615s-0.023-0.43-0.066-0.635l0.004 0.020v-0.615zM12.923 27.077v0.615h-0.615v-1.231h0.615v0.615zM16.615 25.846h-0.615l-1.231 4.308h0.615l0.615-1.231h0.615v1.231h0.615l-0.615-4.308zM16 28.308v-1.231l0.615 1.231h-0.615zM20.308 28.308l-1.231-2.462v1.846h0.615l0.615 2.462h0.615v-4.308h-0.615v2.462zM24 25.846l-0.615 1.846-0.615-1.846h-0.615l1.231 2.462v1.846h0.615v-1.846l0.615-2.462h-0.615zM0 31.385v0.615h0.615v-1.231h-0.615v0.615zM2.462 30.769l-0.615 1.231h1.231l-0.615-1.231zM4.923 31.385v0.615l-0.615-0.615h1.231l-0.615-0.615-0.615 0.615v0.615c0.088 0.052 0.194 0.082 0.308 0.082s0.219-0.031 0.311-0.084l-0.003 0.002h0.615v-0.615h-0.615zM7.385 30.769v0zM9.231 30.769v0zM11.692 31.385l-0.615-0.615v0.615l0.615 0.615v-0.615zM13.538 31.385v-0.615h-0.615v1.231h0.615v-0.615zM17.846 31.385h-0.615v0h0.615v0zM19.692 31.385h0.615v-0.615h-0.615v0.615zM22.154 31.385v-0.615h-0.615v0.615h0.615v0zM22.154 31.385v0zM24 31.385h0.615v-0.615h-0.615v0.615z"></path>
</symbol>
<symbol id="icon-logo-1" viewBox="0 0 29 32">
<path d="M3.84 0l4.48 4.48h13.44v12.16l4.48 4.48v-21.12h-22.4z"></path>
<path d="M0 4.48v20.48h21.76v-8.32l-12.8-12.16h-8.96zM17.92 21.76h-14.72v-14.080h1.28v13.44h13.44v0.64zM6.4 28.8v0 1.28h-0.64v-1.28l-0.64-1.28h0.64l0.64 1.28zM8.32 29.44h-0.64v0.64h-0.64l0.64-2.56h0.64l0.64 2.56-0.64-0.64zM7.68 28.8h0.64v-0.64l-0.64 0.64zM10.24 29.44v-1.92h1.28v0.64l-0.64 0.64 1.28 1.28h-0.64v-0.64l-0.64 0.64-0.64-0.64zM10.88 29.44v-0.64l-0.64 0.64h0.64zM14.72 28.8v0.64l-0.64 0.64h-0.64l-0.64-0.64v-1.28c-0.048-0.093-0.076-0.203-0.076-0.32 0-0.395 0.32-0.716 0.716-0.716 0.279 0 0.52 0.159 0.638 0.391l0.002 0.004h0.64v0.64h-1.28v1.28h0.64v-0.64h0.64zM16.64 28.8v0.64l-0.64 0.64-1.28-1.28 0.64-0.64v-0.64h1.28v1.28zM16.64 28.8v-0.64h-1.28v1.28h1.28v-0.64z"></path>
</symbol>
<symbol id="icon-astronaut" viewBox="0 0 32 32">
<path fill="#2196f3" style="fill: var(--color1, #2196f3)" d="M32 4.571l-0.457-0.457-1.829-0.457-0.914-1.371h-0.914l-0.914 1.371-1.829 0.457c-0.067-0.034-0.145-0.054-0.229-0.054-0.282 0-0.511 0.229-0.511 0.511 0 0.199 0.114 0.371 0.28 0.456l0.003 0.001 1.371 1.371-0.457 1.829c-0.034 0.067-0.054 0.145-0.054 0.229 0 0.282 0.229 0.511 0.511 0.511 0.199 0 0.371-0.114 0.456-0.28l0.001-0.003 1.829-0.914 1.829 0.914c0.252 0 0.457-0.205 0.457-0.457v0-1.829l1.371-1.371v-0.457zM29.714 5.943l-0.457 0.457 0.457 0.914-1.371-0.457c-0.066-0.038-0.144-0.061-0.229-0.061s-0.163 0.023-0.231 0.062l0.002-0.001-0.914 0.457 0.457-0.914-1.371-1.371h1.371l0.457-0.457 0.457-0.914 0.457 0.914 0.457 0.457h0.914l-0.457 0.914zM26.057 20.571h-0.914v0.914h0.914v-0.914zM26.057 22.857h-0.914v0.914h0.914v-0.914zM27.429 21.486h-1.371v1.371h1.371v-1.371zM25.143 21.486h-0.914v1.371h0.914v-1.371zM22.4 26.514h-0.914v0.914h0.914v-0.914zM22.4 28.343h-0.914v1.371h0.914v-1.371zM23.314 27.429h-0.914v0.914h0.914v-0.914zM21.486 27.429h-1.371v0.914h1.371v-0.914zM16 24.229h-0.914v0.914h0.914v-0.914zM16 26.514h-0.914v0.914h0.914v-0.914zM16.914 25.143h-0.914v1.371h0.914v-1.371zM15.086 25.143h-1.371v1.371h1.371v-1.371zM5.943 5.943h-1.371v1.371h1.371v-1.371zM5.943 8.229h-1.371v0.914h1.371v-0.914zM6.857 7.314h-0.914v0.914h0.914v-0.914zM4.571 7.314h-0.914v0.914h0.914v-0.914z"></path>
<path fill="#212121" style="fill: var(--color2, #212121)" d="M24.686 14.171l-1.371-0.914-0.914 0.457-1.371 0.914-1.829 1.371-1.371-0.457c2.677-0.975 4.555-3.498 4.555-6.459 0-3.787-3.070-6.857-6.857-6.857-0.316 0-0.628 0.021-0.933 0.063l0.036-0.004c-3.787 0-6.857 3.070-6.857 6.857 0 1.551 0.515 2.983 1.384 4.132l-0.012-0.017h-3.2l-3.2 1.371-1.829 0.914c-0.559 0.324-0.929 0.919-0.929 1.6 0 1.018 0.825 1.843 1.843 1.843 0.336 0 0.652-0.090 0.923-0.248l-0.009 0.005 1.371-0.914 2.286-0.914h1.371l-6.857 6.857c-0.25 0.31-0.401 0.709-0.401 1.143s0.151 0.833 0.404 1.146l-0.003-0.004c0.31 0.25 0.709 0.401 1.143 0.401s0.833-0.151 1.146-0.404l-0.004 0.003 1.371-1.371 1.829-1.371 0.914 0.914-3.2 3.2c-0.25 0.31-0.401 0.709-0.401 1.143s0.151 0.833 0.404 1.146l-0.003-0.004c0.31 0.25 0.709 0.401 1.143 0.401s0.833-0.151 1.146-0.404l-0.004 0.003 4.571-4.571 5.029-5.486 3.657 0.457h0.457l3.2-2.286 1.371-1.371v-2.286zM2.286 17.829h-0.914c-0.19-0.168-0.31-0.413-0.31-0.686s0.119-0.517 0.309-0.685l0.001-0.001 1.371-0.457 0.457 0.914v0.457l-0.914 0.457zM5.486 16l-1.371 0.914-0.457-0.914v-0.457l1.829-0.914v1.371zM20.571 9.143l-0.457 2.743-4.114-1.829-0.914-1.371 1.371-5.029c2.743 0.914 4.114 3.2 4.114 5.486zM9.143 9.143c0.235-3.088 2.799-5.505 5.927-5.505 0.167 0 0.332 0.007 0.495 0.020l-0.021-0.001-1.371 4.571c-0.914 0-1.829 0.914-1.829 1.829 0.137 0.886 0.894 1.557 1.808 1.557 0.556 0 1.054-0.248 1.39-0.64l0.002-0.002 4.114 1.829c-1.098 1.316-2.738 2.147-4.573 2.147-3.234 0-5.864-2.582-5.941-5.797l-0-0.007zM15.086 10.057l-0.914 0.914-0.914-0.914 0.914-0.914 0.914 0.914zM2.286 25.143h-0.457c-0.252 0-0.457-0.205-0.457-0.457s0.205-0.457 0.457-0.457v0l0.914-0.914 0.457 0.914-0.914 0.914zM5.486 28.8h-0.457c-0.252 0-0.457-0.205-0.457-0.457s0.205-0.457 0.457-0.457v0l0.914-0.914 0.914 0.914-1.371 0.914zM9.143 25.6l-1.829 1.371h-0.457l-0.457-0.457 1.829-1.829v-0.914l-1.829-1.829h-0.457l-1.829 1.371-0.914-0.914 2.743-2.286 4.114 4.571-0.914 0.914zM16 18.286c-0.252 0-0.457 0.205-0.457 0.457v0l-4.571 5.029-4.571-4.114 2.743-3.2c0.252 0 0.457-0.205 0.457-0.457s-0.205-0.457-0.457-0.457v0h-2.286v-1.371h3.2c1.232 1.194 2.915 1.93 4.769 1.93 0.415 0 0.821-0.037 1.216-0.107l-0.042 0.006h0.457l2.286 1.371v0.457l0.457 0.914-3.2-0.457zM20.114 18.743l-0.457-1.829 1.371-0.914 0.457 0.457 0.457 0.914-1.829 1.371zM23.771 15.543l-0.914 0.914-0.914-1.371 0.914-0.457h0.457c0.279 0.16 0.465 0.456 0.465 0.796 0 0.042-0.003 0.083-0.008 0.123l0-0.005z"></path>
<path fill="#212121" style="fill: var(--color2, #212121)" d="M13.714 18.743l-2.286-2.286h-0.914l-1.829 2.286c-0.039 0.066-0.061 0.144-0.061 0.229s0.023 0.163 0.062 0.231l-0.001-0.002 1.829 2.286c0 0.252 0.205 0.457 0.457 0.457s0.457-0.205 0.457-0.457v0l2.286-2.286c0.039-0.066 0.061-0.144 0.061-0.229s-0.023-0.163-0.062-0.231l0.001 0.002zM10.971 20.114l-1.371-1.371 1.371-1.371 1.371 1.371-1.371 1.371zM17.371 5.029l-0.457 0.914s1.829 0.457 1.829 2.286h0.914c0-1.829-1.829-2.743-2.286-3.2zM19.657 9.143h-0.914v1.371h0.914v-1.371z"></path>
</symbol>
<symbol id="icon-diagram" viewBox="0 0 32 32">
<path fill="#2196f3" style="fill: var(--color1, #2196f3)" d="M15.086 15.086h0.914v4.571h-0.914v-4.571zM19.2 16.914h0.914v2.743h-0.914v-2.743zM10.514 18.743h1.371v0.914h-1.371v-0.914zM7.314 18.286h1.371v1.371h-1.371v-1.371z"></path>
<path fill="#212121" style="fill: var(--color2, #212121)" d="M1.371 28.343h25.6c0.914 0 1.829-0.914 1.829-1.829v-1.829c0-0.914-0.914-1.829-1.829-1.829h-0.457v-13.257l3.2-2.743c0.221 0.102 0.48 0.162 0.752 0.162 1.010 0 1.829-0.819 1.829-1.829s-0.819-1.829-1.829-1.829c-1.010 0-1.829 0.819-1.829 1.829 0 0.273 0.060 0.531 0.167 0.764l-0.005-0.011-2.286 2.286v-1.371c0-0.914-0.457-1.371-1.371-1.371h-21.486c-0.914 0-1.371 0.457-1.371 1.371v16h-0.914c-0.457 0-1.371 0.914-1.371 1.829v1.829c0 0.914 0.914 1.829 1.371 1.829zM30.171 5.029c0.252 0 0.457 0.205 0.457 0.457s-0.205 0.457-0.457 0.457v0c-0.252 0-0.457-0.205-0.457-0.457s0.205-0.457 0.457-0.457v0zM3.2 6.857l0.457-0.457h21.486l0.457 0.457v2.286l-0.914 0.914v-1.829l-0.914-0.914h-19.2l-0.457 0.914v13.257l0.457 0.457h19.2l0.914-0.457v-9.6l0.914-1.371v12.343h-22.4v-16zM7.771 13.714c-0.507 0.257-0.848 0.775-0.848 1.371 0 0.847 0.686 1.533 1.533 1.533 0.25 0 0.486-0.060 0.694-0.166l-0.009 0.004 1.829 0.914h0.457l4.114-4.571 3.657 3.2h0.914l3.2-3.2v8.229h-17.829v-12.343h17.829v2.743l-3.657 3.2-3.657-2.743h-0.914l-4.114 4.571-1.371-0.914c0-0.914-0.914-1.829-1.829-1.829zM8.686 15.543c0 0.379-0.307 0.686-0.686 0.686s-0.686-0.307-0.686-0.686v0c0-0.379 0.307-0.686 0.686-0.686s0.686 0.307 0.686 0.686v0zM11.886 24.229h5.029v0.457l-0.457 0.457h-4.114l-0.457-0.457v-0.457zM0.914 24.686l0.457-0.457h9.143v0.457c0 0.914 0.914 1.371 1.829 1.371h4.114c0.914 0 1.829-0.457 1.829-1.371v-0.457h8.686l0.914 0.457v1.829l-0.914 0.914h-25.6l-0.457-0.914v-1.829z"></path>
</symbol>
<symbol id="icon-clock" viewBox="0 0 32 32">
<path fill="#212121" style="fill: var(--color2, #212121)" d="M31.086 15.086c-0.142-8.222-6.841-14.833-15.084-14.833-8.332 0-15.086 6.754-15.086 15.086 0 6.698 4.365 12.376 10.405 14.346l0.107 0.030h0.457l0.457-0.457 3.657-11.886c0.827-0.212 1.428-0.95 1.428-1.829 0-1.041-0.844-1.885-1.885-1.885-0.162 0-0.32 0.021-0.47 0.059l0.013-0.003-5.029-5.029c-0.117-0.117-0.279-0.189-0.457-0.189-0.357 0-0.646 0.289-0.646 0.646 0 0.179 0.072 0.34 0.189 0.457l5.029 5.029c-0.457 0.457 0 1.829 0.457 2.286l-3.657 11.429c-5.571-1.993-9.486-7.227-9.486-13.374 0-7.827 6.345-14.171 14.171-14.171s14.171 6.345 14.171 14.171c0 5.715-3.383 10.639-8.255 12.881l-0.088 0.036v-1.829c0-0.379-0.307-0.686-0.686-0.686s-0.686 0.307-0.686 0.686v0l-3.657 3.2c-0.379 0-0.686 0.307-0.686 0.686s0.307 0.686 0.686 0.686v0l5.029 1.371c0.117 0.117 0.279 0.189 0.457 0.189 0.357 0 0.646-0.289 0.646-0.646 0-0.179-0.072-0.34-0.189-0.457v0l-0.457-1.829c5.486-2.286 9.143-7.771 9.143-14.171zM16 14.629c0.379 0 0.686 0.307 0.686 0.686s-0.307 0.686-0.686 0.686v0c-0.379 0-0.686-0.307-0.686-0.686s0.307-0.686 0.686-0.686v0zM18.286 29.714l1.829-2.286 0.914 3.2-2.743-0.914z"></path>
<path fill="#2196f3" style="fill: var(--color1, #2196f3)" d="M15.543 3.2v1.371c0 0.252 0.205 0.457 0.457 0.457s0.457-0.205 0.457-0.457v0-1.371c0-0.252-0.205-0.457-0.457-0.457s-0.457 0.205-0.457 0.457v0zM3.657 14.629c-0.379 0-0.686 0.307-0.686 0.686s0.307 0.686 0.686 0.686v0h1.371c0.379 0 0.686-0.307 0.686-0.686s-0.307-0.686-0.686-0.686v0h-1.371zM27.886 16c0.379 0 0.686-0.307 0.686-0.686s-0.307-0.686-0.686-0.686v0h-0.914c-0.379 0-0.686 0.307-0.686 0.686s0.307 0.686 0.686 0.686v0h0.914z"></path>
</symbol>
<symbol id="icon-antenna" viewBox="0 0 32 32">
<path fill="#212121" style="fill: var(--color2, #212121)" d="M30.629 21.943l-8.229-8.229 0.914-4.571h0.914c1.179-0.1 2.098-1.082 2.098-2.278 0-1.262-1.023-2.286-2.286-2.286s-2.286 1.023-2.286 2.286c0 0.328 0.069 0.639 0.193 0.921l-0.006-0.015-5.029 0.457-7.771-8.229h-0.914l-1.371 1.829v0.457l0.457 0.914c-1.11 2.049-1.762 4.486-1.762 7.076 0 4.209 1.723 8.015 4.503 10.751l0.002 0.002v6.857h-6.4c-1.371 0-2.743 0.914-2.743 2.743v0.914l0.914 0.457h24.229l0.457-0.457v-0.914c0-1.829-0.914-2.743-2.286-2.743h-6.4v-2.743c0.748 0.132 1.61 0.207 2.49 0.207 2.787 0 5.398-0.756 7.638-2.074l-0.071 0.038 0.457 0.914 0.457 0.457 1.829-1.829v-0.914zM23.314 6.4c0.133-0.068 0.291-0.108 0.457-0.108 0.565 0 1.022 0.458 1.022 1.022 0 0.398-0.227 0.743-0.559 0.912l-0.006 0.003c-0.133 0.068-0.291 0.108-0.457 0.108-0.565 0-1.022-0.458-1.022-1.022 0-0.398 0.227-0.743 0.559-0.912l0.006-0.003zM21.943 9.6l-0.457 3.2-1.371-1.371 1.829-1.829zM21.486 8.686l-1.829 2.286-1.829-1.829 3.657-0.457zM24.229 28.8c0.457 0 1.371 0.914 1.371 1.829v0.457h-23.314v-0.457c0-0.914 0.457-1.829 1.371-1.829h20.571zM16.457 26.514v1.371h-5.029v-1.371h5.029zM11.429 25.6v-4.114c0-1.371 0.914-2.286 2.286-2.286 1.829 0 2.743 0.914 2.743 2.286v4.114h-5.029zM17.829 23.771v-2.286c0-1.829-1.829-3.2-4.114-3.2-1.371 0-2.286 0.457-3.2 1.829-4.114-4.571-5.029-10.971-2.286-16l18.743 18.743c-2.743 1.371-6.4 1.829-9.143 0.914zM28.8 23.314l-0.457-0.914-20.571-20.571 0.914-0.457 21.029 21.029-0.914 0.914z"></path>
<path fill="#2196f3" style="fill: var(--color1, #2196f3)" d="M13.714 20.114c-0.567 0.318-0.943 0.915-0.943 1.6s0.377 1.282 0.934 1.595l0.009 0.005c0.884 0 1.6-0.716 1.6-1.6s-0.716-1.6-1.6-1.6v0zM14.171 22.4c-0.067 0.034-0.145 0.054-0.229 0.054-0.282 0-0.511-0.229-0.511-0.511 0-0.199 0.114-0.371 0.28-0.456l0.003-0.001c0.067-0.034 0.145-0.054 0.229-0.054 0.282 0 0.511 0.229 0.511 0.511 0 0.199-0.114 0.371-0.28 0.456l-0.003 0.001z"></path>
</symbol>
</defs>
</svg>
